<svg width="563" height="451" viewBox="0 0 563 451" fill="none" xmlns="http://www.w3.org/2000/svg">
<circle cx="522.787" cy="40.2138" r="13.4048" fill="#2B64D8"/>
<path d="M459.114 26.8091L479.429 51.943H438.798L459.114 26.8091Z" fill="#2B64D8"/>
<rect x="382.035" y="26.8091" width="33.5119" height="26.8095" fill="#2B64D8"/>
<path d="M0 73.7263L563 73.7263" stroke="#2B64D8" stroke-width="13.4048"/>
<rect width="563" height="450.4" rx="24.8382" fill="white" fill-opacity="0.82"/>
<path d="M152.225 291.176L133.689 310.027L53.2603 229.598L133.689 149.17L152.225 168.177L90.8041 229.598L152.225 291.176ZM211.779 368.378L243.95 264.786L199.554 124.84H239.446L284.486 265.429L250.385 368.378H211.779ZM290.277 234.866L273.548 179.21L292.529 124.84H332.422L293.816 234.866H290.277ZM410.948 229.598L349.369 168.177L368.063 149.17L448.491 229.598L368.063 310.027L349.369 291.176L410.948 229.598Z" fill="#2B64D8"/>
</svg>
