<svg width="563" height="451" viewBox="0 0 563 451" fill="none" xmlns="http://www.w3.org/2000/svg">
<rect width="563" height="450.4" rx="24.8382" fill="white"/>
<circle cx="522.787" cy="40.2138" r="13.4048" fill="#2B64D8"/>
<path d="M459.114 26.8091L479.429 51.943H438.798L459.114 26.8091Z" fill="#2B64D8"/>
<rect x="382.035" y="26.8091" width="33.5119" height="26.8095" fill="#2B64D8"/>
<path d="M0 73.7263L563 73.7263" stroke="#2B64D8" stroke-width="13.4048"/>
<path d="M175.225 304.176L156.689 323.027L76.2603 242.598L156.689 162.17L175.225 181.177L113.804 242.598L175.225 304.176ZM234.779 381.378L266.95 277.786L222.554 137.84H262.446L307.486 278.429L273.385 381.378H234.779ZM313.277 247.866L296.548 192.21L315.529 137.84H355.422L316.816 247.866H313.277ZM433.948 242.598L372.369 181.177L391.063 162.17L471.491 242.598L391.063 323.027L372.369 304.176L433.948 242.598Z" fill="#2B64D8"/>
</svg>
