<svg width="144" height="55" viewBox="0 0 144 55" fill="none" xmlns="http://www.w3.org/2000/svg">
<path d="M80.9146 33.7334C79.2635 33.7334 77.9091 33.2303 76.8513 32.2242L78.051 30.328L78.2832 29.9797L78.5153 30.1345C78.5669 30.3409 78.6572 30.5086 78.7862 30.6376C78.9152 30.7924 79.1603 30.9859 79.5215 31.218C79.9859 31.3728 80.5018 31.4502 81.0694 31.4502C82.0755 31.4502 82.8624 31.0891 83.43 30.3667C83.9975 29.6701 84.5264 28.5866 85.0166 27.1161L77.7801 9.31516H80.6824L86.1775 23.4785L88.4993 16.3581C88.8863 15.1714 89.2604 13.9976 89.6216 12.8367C89.9828 11.6757 90.2278 10.5019 90.3568 9.31516H93.1431C92.9625 10.5019 92.6787 11.7015 92.2917 12.914C91.9047 14.1266 91.492 15.3391 91.0534 16.5516L86.6419 29.0123C86.0227 30.7408 85.2229 31.9533 84.2426 32.6499C83.2881 33.3722 82.1787 33.7334 80.9146 33.7334Z" fill="#2B64D8"/>
<path d="M100.805 27.4257C99.4637 27.4257 98.2254 27.0774 97.0902 26.3808C95.9809 25.6843 95.078 24.6265 94.3814 23.2076C93.6848 21.7887 93.3366 20.0215 93.3366 17.906C93.3366 15.8164 93.6719 14.0879 94.3427 12.7206C95.0135 11.3274 95.9164 10.2826 97.0515 9.58605C98.1867 8.88949 99.4508 8.54121 100.844 8.54121C101.747 8.54121 102.585 8.7089 103.359 9.04428C104.133 9.37966 104.739 9.92143 105.178 10.6696V1.03386H109.86V1.38214C109.706 1.53693 109.602 1.71752 109.551 1.92391C109.525 2.1045 109.512 2.40118 109.512 2.81395L109.473 24.6007C109.473 25.0135 109.499 25.4134 109.551 25.8004C109.602 26.1873 109.719 26.5872 109.899 27H105.604C105.397 26.5872 105.281 26.2647 105.255 26.0326C105.23 25.7746 105.217 25.4392 105.217 25.0264C104.727 25.852 104.095 26.4582 103.321 26.8452C102.547 27.2322 101.708 27.4257 100.805 27.4257ZM101.54 23.9042C103.914 23.9042 105.101 21.9177 105.101 17.9447C105.101 13.946 103.875 11.9466 101.424 11.9466C100.186 11.9466 99.2444 12.4755 98.5994 13.5332C97.9545 14.5909 97.632 16.0228 97.632 17.8287C97.632 19.7377 98.0061 21.234 98.7542 22.3176C99.5282 23.3753 100.457 23.9042 101.54 23.9042ZM118.606 27.4257C116.878 27.4257 115.33 27.0645 113.962 26.3421C112.621 25.6198 111.563 24.562 110.789 23.1689C110.015 21.7758 109.628 20.0989 109.628 18.1382C109.628 16.126 110.002 14.4104 110.751 12.9914C111.524 11.5725 112.544 10.489 113.808 9.74084C115.098 8.96688 116.529 8.57991 118.103 8.57991C119.496 8.57991 120.773 8.90239 121.934 9.54735C123.121 10.1923 124.063 11.1727 124.759 12.4884C125.481 13.7783 125.843 15.3907 125.843 17.3256C125.843 17.5836 125.83 17.8931 125.804 18.2543C125.804 18.6155 125.791 18.9251 125.765 19.1831H113.846C113.898 20.3182 114.169 21.2469 114.659 21.9693C115.149 22.6659 115.755 23.1818 116.478 23.5172C117.2 23.8526 117.974 24.0203 118.8 24.0203C119.599 24.0203 120.36 23.8913 121.083 23.6333C121.805 23.3753 122.476 22.9367 123.095 22.3176L125.34 24.4847C124.462 25.5166 123.456 26.2647 122.321 26.7291C121.186 27.1935 119.948 27.4257 118.606 27.4257ZM113.924 15.8938H121.586C121.586 14.6296 121.263 13.6622 120.618 12.9914C119.973 12.3207 119.071 11.9853 117.91 11.9853C116.903 11.9853 116.026 12.3078 115.278 12.9527C114.53 13.5719 114.079 14.5522 113.924 15.8938ZM132.073 27L125.301 9.00558H129.867L134.201 21.118L136.291 16.0099C136.781 14.7715 137.168 13.5719 137.452 12.411C137.761 11.2242 137.955 10.0891 138.032 9.00558H142.134C142.005 10.1407 141.722 11.3532 141.283 12.6432C140.87 13.9073 140.393 15.1972 139.851 16.5129L135.517 27H132.073Z" fill="#1E1E1E"/>
<rect width="68" height="54.4" rx="2.26667" fill="white" fill-opacity="0.82"/>
<path d="M0 8.90479L68 8.90479" stroke="#2B64D8" stroke-width="1.61905"/>
<rect x="46.1426" y="3.23804" width="4.04762" height="3.2381" fill="#2B64D8"/>
<path d="M55.4525 3.23804L57.9062 6.27375H52.9987L55.4525 3.23804Z" fill="#2B64D8"/>
<circle cx="63.1425" cy="4.85708" r="1.61905" fill="#2B64D8"/>
<path d="M21.3958 35.5684L19.1569 37.8452L9.44266 28.1309L19.1569 18.4166L21.3958 20.7124L13.9773 28.1309L21.3958 35.5684ZM28.5888 44.8929L32.4745 32.3809L27.1122 15.478H31.9305L37.3705 32.4586L33.2516 44.8929H28.5888ZM38.0699 28.7672L36.0493 22.0449L38.3419 15.478H43.1602L38.4973 28.7672H38.0699ZM52.6447 28.1309L45.2072 20.7124L47.465 18.4166L57.1793 28.1309L47.465 37.8452L45.2072 35.5684L52.6447 28.1309Z" fill="#2B64D8"/>
</svg>
