<svg width="274" height="194" viewBox="0 0 274 194" fill="none" xmlns="http://www.w3.org/2000/svg">
<circle cx="177.305" cy="96.6952" r="96.6952" fill="#2B64D8" fill-opacity="0.75"/>
<path d="M202.047 152.883L202.751 143.824C206.844 142.348 211.071 141.208 215.432 140.403L214.023 143.019L188.56 105.982L211.407 99.138L243.714 144.73L235.561 141.006L248.847 143.824L248.142 152.883H202.047ZM148.705 152.883L149.409 144.026C153.099 142.214 157.058 140.973 161.285 140.302L153.334 144.126L189.164 100.044L206.374 100.547L172.256 144.126L171.652 141.006L184.836 143.824L184.132 152.883H148.705ZM187.151 106.586L154.844 61.3961L162.996 65.1199L149.711 62.3019L150.416 53.2438H196.31L195.605 62.3019C191.781 63.778 187.621 64.9187 183.125 65.7238L184.534 63.107L210.098 99.7419L187.151 106.586ZM206.978 105.68L189.768 105.177L223.887 61.9999L224.49 65.1199L211.507 62.3019L212.212 53.2438H247.438L246.733 62.1006C243.043 63.9122 239.084 65.1535 234.857 65.8245L242.808 61.9999L206.978 105.68Z" fill="#01002A"/>
<circle cx="97.2816" cy="96.6952" r="96.6952" fill="#2B64D8"/>
<path d="M71.1069 154.594C58.5598 154.594 48.5623 151.809 41.1146 146.24C33.7339 140.671 30.0436 133.19 30.0436 123.796L54.601 120.676C54.601 126.446 56.312 130.908 59.734 134.062C63.1559 137.148 68.054 138.692 74.4282 138.692C80.8023 138.692 85.734 137.148 89.223 134.062C92.712 130.908 94.4565 126.446 94.4565 120.676L112.17 123.796C112.17 133.19 108.446 140.671 100.998 146.24C93.6178 151.809 83.654 154.594 71.1069 154.594ZM30.0436 123.796V54.6528H54.601V120.676L30.0436 123.796ZM30.0436 71.5612V55.7599L33.5662 65.3212L21.1868 62.3019L21.8914 53.2438H65.4707L64.7662 62.1006C63.4914 62.5703 61.6462 63.1406 59.2307 63.8116C56.8152 64.4154 53.9972 65.0864 50.7765 65.8245L54.601 55.7599V71.5612H30.0436ZM112.17 123.796L94.4565 120.676V54.6528H112.17V123.796ZM94.4565 71.5612V55.7599L97.9791 65.1199L83.1843 62.3019L83.8888 53.2438H120.624L119.92 62.1006C117.437 63.3754 113.579 64.7174 108.346 66.1264L112.17 55.7599V71.5612H94.4565ZM138.137 151.373V54.6528H162.291V151.373H138.137ZM128.676 152.883L129.38 144.026C132.601 142.617 136.795 141.308 141.961 140.101L138.137 150.366V134.565H162.291V150.366L158.769 140.906L172.155 143.824L171.45 152.883H128.676ZM171.752 53.2438L171.048 62.1006C167.827 63.5096 163.633 64.818 158.467 66.0258L162.291 55.7599V71.5612H138.137V55.7599L141.659 65.2206L128.273 62.3019L128.978 53.2438H171.752Z" fill="white"/>
</svg>
